<?xml version="1.0" encoding="UTF-8"?>
<!DOCTYPE svg PUBLIC "-//W3C//DTD SVG 1.0//EN" "http://www.w3.org/TR/2001/REC-SVG-20010904/DTD/svg10.dtd">
<!-- Creator: CorelDRAW X6 -->
<svg xmlns="http://www.w3.org/2000/svg" xml:space="preserve" width="700px" height="700px" version="1.0" style="shape-rendering:geometricPrecision; text-rendering:geometricPrecision; image-rendering:optimizeQuality; fill-rule:evenodd; clip-rule:evenodd"
viewBox="0 0 2009 2009"
 xmlns:xlink="http://www.w3.org/1999/xlink">
 <defs>
  <style type="text/css">
   <![CDATA[
    .fil1 {fill:#EEEEEF}
    .fil0 {fill:#EEEEEF;fill-rule:nonzero}
   ]]>
  </style>
 </defs>
 <g id="Layer_x0020_1">
  <metadata id="CorelCorpID_0Corel-Layer"/>
  <path class="fil0" d="M1004 0c277,0 528,112 710,294 182,182 294,433 294,710 0,277 -112,528 -294,710 -182,182 -433,294 -710,294 -277,0 -528,-112 -710,-294 -182,-182 -294,-433 -294,-710 0,-277 112,-528 294,-710 182,-182 433,-294 710,-294zm667 337c-171,-171 -407,-276 -667,-276 -261,0 -496,106 -667,276 -171,171 -276,407 -276,667 0,261 106,496 276,667 171,171 407,276 667,276 261,0 496,-106 667,-276 171,-171 276,-407 276,-667 0,-261 -106,-496 -276,-667z"/>
  <path class="fil1" d="M846 403l-90 -88 -90 88 -89 88 0 839 -163 0c-27,0 -49,22 -49,49l0 0c0,27 22,49 49,49l356 0c12,2 21,13 21,26 0,11 -7,21 -17,24l-60 0c-27,0 -49,22 -49,49l0 0c0,27 22,49 49,49l663 0c27,0 49,-22 49,-49l0 0c0,-27 -22,-49 -49,-49l-199 0c-10,-4 -18,-13 -18,-25 0,-12 9,-23 20,-25l417 0c27,0 49,-22 49,-49l0 0c0,-27 -22,-49 -49,-49l-178 0 0 -635 -81 0 0 -66 -178 0 0 66 -223 0 0 -203c1,0 -76,-74 -90,-88zm-285 1074l-6 0c-27,0 -49,22 -49,49l0 0c0,27 22,49 49,49l6 0c27,0 49,-22 49,-49l0 0c0,-27 -22,-49 -49,-49zm300 1l97 0c10,-4 18,-13 18,-25 0,-12 -9,-23 -20,-25l-90 0c-12,2 -21,13 -21,26 0,11 7,21 17,25zm197 -304l-120 0 0 -120 120 0 0 120zm0 -240l-120 0 0 -120 120 0 0 120zm240 240l-120 0 0 -120 120 0 0 120zm0 -240l-120 0 0 -120 120 0 0 120zm-482 239l-120 0 0 -120 120 0 0 120zm0 -240l-120 0 0 -120 120 0 0 120 0 0zm0 -240l-120 0 0 -120 120 0 0 120z"/>
 </g>
</svg>
